<?xml version="1.0" encoding="utf-8"?>
<!-- Generator: Adobe Illustrator 23.0.1, SVG Export Plug-In . SVG Version: 6.00 Build 0)  -->
<svg version="1.1" id="Capa_1" xmlns="http://www.w3.org/2000/svg" xmlns:xlink="http://www.w3.org/1999/xlink" x="0px" y="0px"
	 viewBox="0 0 50 50" style="enable-background:new 0 0 50 50;" xml:space="preserve">
<style type="text/css">
	.st0{fill:#FFFFFF;}
	.st1{fill:#269447;}
</style>
<g>
	<g>
		<path class="st0" d="M4,49.5c-1.9,0-3.4-1.5-3.4-3.4v-42c0-1.9,1.5-3.4,3.4-3.4h42.1c1.9,0,3.4,1.5,3.4,3.4v42.1
			c0,1.9-1.5,3.3-3.4,3.3H4z"/>
		<path class="st1" d="M46.1,1.2c1.6,0,2.9,1.3,2.9,2.9v42.1c0,1.6-1.3,2.8-2.9,2.8H4c-1.6,0-2.9-1.3-2.9-2.9v-42
			c0-1.6,1.3-2.9,2.9-2.9H46.1 M46.1,0.2H4c-2.1,0-3.9,1.7-3.9,3.9v42C0.1,48.2,1.8,50,4,50h42.1c2.2,0,3.9-1.7,3.9-3.8V4.1
			C50,2,48.3,0.2,46.1,0.2L46.1,0.2z"/>
	</g>
	<path class="st1" d="M40.6,13.9H9.1c-1.4,0-2.5-1.1-2.5-2.5V9c0-1.4,1.1-2.5,2.5-2.5h31.5c1.4,0,2.5,1.1,2.5,2.5v2.5
		C43.1,12.8,42,13.9,40.6,13.9z"/>
	<path class="st1" d="M40.6,28.7H9.1c-1.4,0-2.5-1.1-2.5-2.5v-2.5c0-1.4,1.1-2.5,2.5-2.5h31.5c1.4,0,2.5,1.1,2.5,2.5v2.5
		C43.1,27.6,42,28.7,40.6,28.7z"/>
	<path class="st1" d="M40.6,43.4H9.1c-1.4,0-2.5-1.1-2.5-2.5v-2.5c0-1.4,1.1-2.5,2.5-2.5h31.5c1.4,0,2.5,1.1,2.5,2.5V41
		C43.1,42.3,42,43.4,40.6,43.4z"/>
</g>
</svg>
